<?xml version="1.0" encoding="UTF-8"?>
<svg id="Capa_1" data-name="Capa 1" xmlns="http://www.w3.org/2000/svg" viewBox="0 0 74.29 69.26">
  <defs>
    <style>
      .cls-1 {
        fill: #fff;
      }

      .cls-2 {
        fill: #282727;
      }
    </style>
  </defs>
  <path class="cls-2" d="M47.57,34.68c0,1.98,.09,3.96-.02,5.93-.15,2.61-1.78,4.27-4.36,4.43-4.03,.27-8.07,.26-12.1,0-2.65-.17-4.2-1.7-4.47-4.33-.43-4.1-.45-8.21,.01-12.31,.29-2.59,1.67-4,4.23-4.29,4.18-.47,8.36-.47,12.54,0,2.48,.28,4,1.84,4.15,4.37,.12,2.05,.02,4.11,.02,6.17Zm-17,.03c.07,3.5,3.16,6.53,6.59,6.44,3.44-.09,6.48-3.18,6.5-6.59,.01-3.53-3.21-6.62-6.77-6.5-3.6,.13-6.39,3.06-6.32,6.65Zm14.74-7.07c.02-.92-.58-1.29-1.34-1.34-.84-.05-1.37,.49-1.39,1.29-.03,.91,.49,1.48,1.47,1.43,.87-.04,1.25-.56,1.27-1.39Z"/>
  <g>
    <path class="cls-2" d="M13.46,34.49c0-4.92-.02-9.84,0-14.75,.02-5.19,3.63-8.79,8.82-8.8,9.75-.02,19.5-.01,29.26,0,5.44,0,9.13,3.32,9.2,8.71,.14,9.91,.12,19.83,0,29.74-.06,5.26-3.62,8.8-8.88,8.86-9.83,.11-19.66,.1-29.49,0-5.53-.06-8.91-3.69-8.92-9.25,0-4.84,0-9.68,0-14.52Zm23.6,12.85c1.66,0,3.33,.07,4.98-.01,4.78-.25,7.31-2.37,7.67-6.99,.3-3.85,.29-7.76-.01-11.6-.34-4.34-2.48-6.5-6.78-6.82-3.93-.29-7.92-.28-11.85,.01-3.87,.29-6.06,2.35-6.52,6.04-.55,4.47-.64,9.01,.08,13.48,.55,3.41,2.45,5,5.81,5.65,2.21,.43,4.42,.04,6.62,.23Z"/>
    <path class="cls-1" d="M37.05,47.35c-2.2-.19-4.42,.19-6.62-.23-3.37-.65-5.27-2.25-5.81-5.65-.72-4.47-.62-9.01-.08-13.48,.45-3.7,2.65-5.76,6.52-6.04,3.93-.29,7.92-.3,11.85-.01,4.3,.31,6.44,2.47,6.78,6.82,.3,3.85,.31,7.76,.01,11.6-.36,4.62-2.89,6.75-7.67,6.99-1.66,.09-3.32,.01-4.98,.01Zm10.52-12.67c0-2.06,.09-4.12-.02-6.17-.15-2.54-1.67-4.09-4.15-4.37-4.18-.48-8.36-.47-12.54,0-2.56,.29-3.93,1.7-4.23,4.29-.46,4.1-.44,8.21-.01,12.31,.27,2.63,1.82,4.16,4.47,4.33,4.03,.26,8.07,.26,12.1,0,2.57-.17,4.2-1.82,4.36-4.43,.12-1.97,.02-3.96,.02-5.93Z"/>
    <path class="cls-1" d="M30.57,34.71c-.07-3.59,2.72-6.52,6.32-6.65,3.56-.13,6.78,2.97,6.77,6.5-.01,3.42-3.05,6.5-6.5,6.59-3.42,.09-6.52-2.94-6.59-6.44Zm10.82-.03c.04-2.56-1.64-4.37-4.14-4.46-2.57-.09-4.53,1.81-4.52,4.36,0,2.52,1.77,4.28,4.3,4.3,2.55,.02,4.32-1.69,4.36-4.21Z"/>
    <path class="cls-1" d="M45.31,27.63c-.02,.83-.4,1.35-1.27,1.39-.98,.04-1.5-.52-1.47-1.43,.02-.8,.56-1.35,1.39-1.29,.76,.05,1.36,.42,1.34,1.34Z"/>
  </g>
  <path class="cls-2" d="M41.39,34.67c-.04,2.52-1.81,4.23-4.36,4.21-2.52-.02-4.29-1.79-4.3-4.3,0-2.55,1.95-4.45,4.52-4.36,2.5,.08,4.19,1.9,4.14,4.46Z"/>
</svg>