<?xml version="1.0" encoding="UTF-8"?>
<svg id="Capa_1" data-name="Capa 1" xmlns="http://www.w3.org/2000/svg" viewBox="0 0 74.29 69.26">
  <defs>
    <style>
      .cls-1 {
        fill: #fff;
      }

      .cls-2 {
        fill: #262625;
      }
    </style>
  </defs>
  <path class="cls-2" d="M13.48,34.48c0-4.84,0-9.68,0-14.52,.01-5.16,3.3-8.9,8.43-8.98,10.17-.16,20.35-.17,30.51,.01,5.1,.09,8.32,3.7,8.35,8.78,.05,9.84,.04,19.67,0,29.51-.02,5.44-3.4,8.97-8.87,9.03-9.77,.11-19.55,.09-29.33,0-5.7-.05-9.1-3.64-9.1-9.33,0-4.84,0-9.68,0-14.52Zm25.7-2.99c.04-3.19-2.04-1.78-3.24-2.04-1.47-.32-1.41,.73-1.4,1.74,.02,4.04,.11,8.09-.04,12.13-.07,1.97,1.08,1.73,2.27,1.7,1.13-.03,2.46,.41,2.34-1.62-.14-2.29-.07-4.6,0-6.9,.05-1.88,.84-3.24,2.97-3.24,2.25,0,2.73,1.56,2.78,3.36,.06,2.3,.11,4.6-.02,6.9-.09,1.65,.89,1.7,1.94,1.47,1-.22,2.81,1.03,2.8-1.34-.01-2.93,.11-5.87-.04-8.8-.18-3.54-2.03-5.58-5.05-5.87-2.04-.19-3.67,.7-5.3,2.51Zm-7.96,5.62c0-2.06-.12-4.13,.03-6.18,.14-1.93-1.14-1.56-2.14-1.46-.95,.1-2.52-.85-2.47,1.37,.09,4.2,.11,8.41,0,12.61-.06,2.08,1.31,1.49,2.39,1.56,1.23,.08,2.39,.22,2.24-1.71-.16-2.05-.04-4.12-.04-6.18Zm.42-12.69c-.14-1.61-.98-2.64-2.65-2.69-1.65-.04-2.7,.83-2.76,2.54-.06,1.79,.91,2.86,2.7,2.86,1.66,0,2.53-1.05,2.72-2.72Z"/>
  <path class="cls-1" d="M39.18,31.5c1.63-1.81,3.26-2.71,5.3-2.51,3.03,.29,4.87,2.33,5.05,5.87,.15,2.93,.03,5.87,.04,8.8,0,2.37-1.8,1.13-2.8,1.34-1.05,.23-2.03,.18-1.94-1.47,.13-2.29,.07-4.6,.02-6.9-.04-1.8-.53-3.37-2.78-3.36-2.13,0-2.92,1.36-2.97,3.24-.06,2.3-.13,4.61,0,6.9,.12,2.03-1.22,1.6-2.34,1.62-1.19,.03-2.34,.27-2.27-1.7,.15-4.04,.06-8.09,.04-12.13,0-1.01-.07-2.06,1.4-1.74,1.2,.26,3.28-1.15,3.24,2.04Z"/>
  <path class="cls-1" d="M31.22,37.12c0,2.06-.13,4.13,.04,6.18,.15,1.93-1.01,1.79-2.24,1.71-1.08-.07-2.44,.52-2.39-1.56,.11-4.2,.1-8.41,0-12.61-.05-2.22,.88-1.23,2.47-1.37,1-.09,2.29-.48,2.14,1.46-.15,2.05-.03,4.12-.03,6.18Z"/>
  <path class="cls-1" d="M31.64,24.42c-.19,1.67-1.05,2.72-2.72,2.72-1.79,0-2.75-1.07-2.7-2.86,.05-1.72,1.11-2.59,2.76-2.54,1.67,.05,2.51,1.08,2.65,2.69Z"/>
</svg>