<?xml version="1.0" encoding="UTF-8"?>
<svg id="Capa_1" data-name="Capa 1" xmlns="http://www.w3.org/2000/svg" viewBox="0 0 74.29 69.26">
  <defs>
    <style>
      .cls-1 {
        fill: none;
        stroke: #fff;
        stroke-miterlimit: 10;
        stroke-width: 1.5px;
      }

      .cls-2 {
        fill: #282727;
      }
    </style>
  </defs>
  <path class="cls-2" d="M60.74,19.65c-.08-5.39-3.76-8.7-9.2-8.71-9.75,0-19.5-.02-29.26,0-5.2,.01-8.8,3.61-8.82,8.8-.02,4.92,0,9.84,0,14.75s0,9.68,0,14.52c0,5.56,3.39,9.19,8.92,9.25,9.83,.1,19.66,.11,29.49,0,5.26-.06,8.82-3.6,8.88-8.86,.12-9.91,.13-19.83,0-29.74Z"/>
  <g>
    <rect class="cls-1" x="25.26" y="26.62" width="25.11" height="16.03" rx="1.71" ry="1.71"/>
    <path class="cls-1" d="M25.94,27.23l11.09,7.96c.47,.34,1.1,.33,1.55-.03l10.38-8.13"/>
    <line class="cls-1" x1="25.31" y1="42.18" x2="35.56" y2="34.63"/>
    <line class="cls-1" x1="50.22" y1="42.13" x2="39.93" y2="34.32"/>
  </g>
</svg>